<svg width="17" height="16" viewBox="0 0 17 16" fill="none" xmlns="http://www.w3.org/2000/svg">
<path fill-rule="evenodd" clip-rule="evenodd" d="M10.0308 3.18713C11.9444 5.1007 11.9444 8.20321 10.0308 10.1168C8.11727 12.0303 5.01476 12.0303 3.10119 10.1168C1.18762 8.20321 1.18762 5.1007 3.10119 3.18713C5.01476 1.27356 8.11727 1.27356 10.0308 3.18713ZM11.8203 10.3079C13.5611 7.81229 13.3182 4.35312 11.0915 2.12647C8.59214 -0.372886 4.53989 -0.372886 2.04053 2.12647C-0.458823 4.62583 -0.458823 8.67808 2.04053 11.1774C4.46165 13.5986 8.33996 13.6743 10.8523 11.4048C10.8755 11.437 10.9017 11.4678 10.9306 11.4967L14.7551 15.3212C15.048 15.6141 15.5228 15.6141 15.8157 15.3212C16.1086 15.0283 16.1086 14.5534 15.8157 14.2605L11.9913 10.4361C11.9394 10.3841 11.8817 10.3414 11.8203 10.3079Z" fill="white"/>
</svg>
